<svg xmlns="http://www.w3.org/2000/svg" xmlns:xlink="http://www.w3.org/1999/xlink"><defs>
<clipPath id="clip0_49946_3">
<rect width="22" height="22" fill="white" transform="translate(11 12)"/>
</clipPath>

<clipPath id="clip0_49893_2">
<rect width="80" height="80" fill="white"/>
</clipPath>
</defs><symbol id="facebook" viewBox="0 0 45 45">
<circle cx="22.5" cy="22.5" r="21.5" fill="white" stroke-width="2"/>
<path d="M26.9993 13.0042L24.4058 13C21.4921 13 19.6091 14.9319 19.6091 17.922V20.1914H17.0014C16.7761 20.1914 16.5936 20.3741 16.5936 20.5994V23.8875C16.5936 24.1128 16.7763 24.2953 17.0014 24.2953H19.6091V32.5922C19.6091 32.8175 19.7915 33 20.0169 33H23.4192C23.6445 33 23.827 32.8173 23.827 32.5922V24.2953H26.8759C27.1013 24.2953 27.2837 24.1128 27.2837 23.8875L27.285 20.5994C27.285 20.4912 27.2419 20.3876 27.1656 20.311C27.0892 20.2345 26.9852 20.1914 26.877 20.1914H23.827V18.2676C23.827 17.343 24.0473 16.8736 25.2518 16.8736L26.9989 16.873C27.224 16.873 27.4065 16.6903 27.4065 16.4651V13.412C27.4065 13.1871 27.2242 13.0046 26.9993 13.0042Z"/>
</symbol><symbol id="instagram" viewBox="0 0 45 45">
<circle cx="22.5" cy="22.5" r="21.5" fill="white" stroke-width="2"/>
<g clip-path="url(#clip0_49946_3)">
<path d="M26.125 12H17.875C14.0786 12 11 15.0786 11 18.875V27.125C11 30.9214 14.0786 34 17.875 34H26.125C29.9214 34 33 30.9214 33 27.125V18.875C33 15.0786 29.9214 12 26.125 12ZM30.9375 27.125C30.9375 29.7787 28.7787 31.9375 26.125 31.9375H17.875C15.2213 31.9375 13.0625 29.7787 13.0625 27.125V18.875C13.0625 16.2213 15.2213 14.0625 17.875 14.0625H26.125C28.7787 14.0625 30.9375 16.2213 30.9375 18.875V27.125Z"/>
<path d="M22 17.5C18.9626 17.5 16.5 19.9626 16.5 23C16.5 26.0374 18.9626 28.5 22 28.5C25.0374 28.5 27.5 26.0374 27.5 23C27.5 19.9626 25.0374 17.5 22 17.5ZM22 26.4375C20.1052 26.4375 18.5625 24.8948 18.5625 23C18.5625 21.1039 20.1052 19.5625 22 19.5625C23.8948 19.5625 25.4375 21.1039 25.4375 23C25.4375 24.8948 23.8948 26.4375 22 26.4375Z"/>
<path d="M27.9125 17.8204C28.3173 17.8204 28.6454 17.4923 28.6454 17.0876C28.6454 16.6828 28.3173 16.3547 27.9125 16.3547C27.5077 16.3547 27.1796 16.6828 27.1796 17.0876C27.1796 17.4923 27.5077 17.8204 27.9125 17.8204Z"/>
</g>

</symbol><symbol id="logo" viewBox="0 0 258 80"><g fill="none">
<path d="M102.285 54V28.4062H111.25C114.355 28.4062 116.711 29.0039 118.316 30.1992C119.922 31.3828 120.725 33.123 120.725 35.4199C120.725 36.6738 120.402 37.7812 119.758 38.7422C119.113 39.6914 118.217 40.3887 117.068 40.834C118.381 41.1621 119.412 41.8242 120.162 42.8203C120.924 43.8164 121.305 45.0352 121.305 46.4766C121.305 48.9375 120.52 50.8008 118.949 52.0664C117.379 53.332 115.141 53.9766 112.234 54H102.285ZM107.559 42.8555V49.7637H112.076C113.318 49.7637 114.285 49.4707 114.977 48.8848C115.68 48.2871 116.031 47.4668 116.031 46.4238C116.031 44.0801 114.818 42.8906 112.393 42.8555H107.559ZM107.559 39.1289H111.461C114.121 39.082 115.451 38.0215 115.451 35.9473C115.451 34.7871 115.111 33.9551 114.432 33.4512C113.764 32.9355 112.703 32.6777 111.25 32.6777H107.559V39.1289ZM144.276 42.9082H134.151V49.7637H146.034V54H128.877V28.4062H145.998V32.6777H134.151V38.7773H144.276V42.9082ZM167.177 48.7266H157.93L156.173 54H150.565L160.093 28.4062H164.979L174.559 54H168.952L167.177 48.7266ZM159.354 44.4551H165.753L162.536 34.875L159.354 44.4551ZM199.605 28.4062V45.2637C199.605 48.0645 198.726 50.2793 196.968 51.9082C195.222 53.5371 192.831 54.3516 189.796 54.3516C186.808 54.3516 184.435 53.5605 182.677 51.9785C180.919 50.3965 180.023 48.2227 179.988 45.457V28.4062H185.261V45.2988C185.261 46.9746 185.659 48.1992 186.456 48.9727C187.265 49.7344 188.378 50.1152 189.796 50.1152C192.761 50.1152 194.267 48.5566 194.314 45.4395V28.4062H199.605ZM226.795 32.6777H218.955V54H213.681V32.6777H205.947V28.4062H226.795V32.6777ZM242.523 39.9375L247.85 28.4062H253.615L245.213 44.7188V54H239.852V44.7188L231.449 28.4062H237.232L242.523 39.9375Z" fill="#66C05D"/>
<g clip-path="url(#clip0_49893_2)">
<path d="M57.2204 25.3732L46.6873 35.9064L50.7656 39.9847L61.2987 29.4515L57.2204 25.3732Z" fill="#66C05D"/>
<path d="M35.9094 46.7065L25.3762 57.2397L29.4545 61.318L39.9877 50.7848L35.9094 46.7065Z" fill="#66C05D"/>
<path d="M50.5173 18.706L39.9842 29.2391L44.0625 33.3174L54.5956 22.7843L50.5173 18.706Z" fill="#66C05D"/>
<path d="M29.2355 40.0106L18.7023 50.5437L22.7806 54.622L33.3138 44.0889L29.2355 40.0106Z" fill="#66C05D"/>
<path d="M22.7576 25.3729L18.6793 29.4512L29.2124 39.9844L33.2907 35.9061L22.7576 25.3729Z" fill="#66C05D"/>
<path d="M29.454 18.699L25.3757 22.7773L35.9089 33.3104L39.9872 29.2321L29.454 18.699Z" fill="#66C05D"/>
<path d="M50.7592 39.9809L46.6809 44.0592L57.2141 54.5923L61.2924 50.514L50.7592 39.9809Z" fill="#66C05D"/>
<path d="M44.092 46.6841L40.0137 50.7624L50.5468 61.2955L54.6251 57.2172L44.092 46.6841Z" fill="#66C05D"/>
<path d="M54.6058 65.3942L50.5394 61.3278L40 71.8672L29.4606 61.3278L25.3942 65.3942L40 80L54.6058 65.3942Z" fill="#EFEFEF"/>
<path d="M18.6722 29.4606L14.6058 25.3942L0 40L14.6058 54.6058L18.6722 50.5394L8.13278 40L18.6722 29.4606Z" fill="#EFEFEF"/>
<path d="M65.3942 25.3942L61.3278 29.4606L71.8672 40L61.3278 50.5394L65.3942 54.6058L80 40L65.3942 25.3942Z" fill="#EFEFEF"/>
<path d="M50.5394 18.6722L54.6058 14.6058L40 0L25.3942 14.6058L29.4606 18.6722L40 8.13278L50.5394 18.6722Z" fill="#EFEFEF"/>
</g>

</g></symbol><symbol id="vk" viewBox="0 0 45 45">
<circle cx="22.5" cy="22.5" r="21.5" fill="white" stroke-width="2"/>
<path d="M35.8947 28.5466C35.8607 28.478 35.8291 28.4211 35.7997 28.3755C35.3131 27.554 34.3833 26.5456 33.0109 25.3502L32.9819 25.3228L32.9674 25.3094L32.9527 25.2956H32.938C32.3151 24.7389 31.9206 24.3646 31.7554 24.173C31.4532 23.8079 31.3855 23.4384 31.5507 23.064C31.6674 22.7812 32.1057 22.1838 32.8648 21.271C33.264 20.7873 33.5802 20.3997 33.8137 20.1076C35.4978 18.0086 36.228 16.6673 36.004 16.0832L35.917 15.9467C35.8585 15.8645 35.7077 15.7893 35.4646 15.7208C35.221 15.6524 34.9096 15.641 34.5299 15.6866L30.3249 15.7139C30.2568 15.6912 30.1595 15.6934 30.0328 15.7208C29.9062 15.7482 29.8429 15.762 29.8429 15.762L29.7697 15.7962L29.7116 15.8374C29.6629 15.8647 29.6094 15.9126 29.5509 15.981C29.4928 16.0492 29.4441 16.1293 29.4053 16.2205C28.9475 17.3248 28.4269 18.3514 27.8428 19.3004C27.4826 19.8663 27.1518 20.3567 26.8497 20.7719C26.548 21.1871 26.2949 21.4929 26.0907 21.6889C25.8861 21.8852 25.7015 22.0424 25.5357 22.1611C25.3702 22.2799 25.2438 22.3301 25.1563 22.3118C25.0686 22.2934 24.986 22.2752 24.9078 22.257C24.7716 22.1748 24.6621 22.063 24.5795 21.9216C24.4965 21.7802 24.4407 21.6022 24.4115 21.3877C24.3824 21.1731 24.3653 20.9885 24.3603 20.8333C24.3558 20.6783 24.3579 20.4591 24.3678 20.1762C24.3779 19.8932 24.3824 19.7017 24.3824 19.6013C24.3824 19.2545 24.3896 18.8781 24.4041 18.472C24.4188 18.0659 24.4308 17.7441 24.4407 17.5071C24.4507 17.2698 24.4553 17.0188 24.4553 16.7541C24.4553 16.4895 24.4381 16.2819 24.4041 16.1313C24.3706 15.9808 24.3191 15.8348 24.2512 15.6932C24.1829 15.5518 24.083 15.4424 23.9519 15.3647C23.8205 15.2871 23.6572 15.2256 23.4628 15.1798C22.9468 15.0704 22.2898 15.0112 21.4915 15.0019C19.681 14.9837 18.5177 15.0933 18.0018 15.3306C17.7974 15.4309 17.6124 15.5678 17.4471 15.7411C17.2718 15.9419 17.2473 16.0515 17.3739 16.0696C17.958 16.1516 18.3715 16.3478 18.6149 16.6581L18.7026 16.8225C18.7708 16.9411 18.8389 17.1511 18.9071 17.4522C18.9752 17.7533 19.0191 18.0863 19.0384 18.4512C19.087 19.1175 19.087 19.6878 19.0384 20.1623C18.9897 20.6369 18.9437 21.0064 18.8998 21.2711C18.8558 21.5358 18.7902 21.7502 18.7026 21.9144C18.6149 22.0787 18.5565 22.1791 18.5273 22.2155C18.4981 22.2519 18.4738 22.2749 18.4544 22.2839C18.3279 22.3294 18.1963 22.3525 18.0601 22.3525C17.9237 22.3525 17.7583 22.2886 17.5637 22.1608C17.3691 22.0329 17.1672 21.8574 16.9578 21.6337C16.7485 21.4101 16.5125 21.0975 16.2495 20.6961C15.9868 20.2946 15.7143 19.8201 15.432 19.2725L15.1984 18.8755C15.0524 18.62 14.8529 18.2481 14.5998 17.7599C14.3466 17.2716 14.1228 16.7993 13.9282 16.343C13.8504 16.1514 13.7335 16.0055 13.5778 15.9051L13.5047 15.8639C13.4561 15.8275 13.3782 15.7888 13.2712 15.7475C13.164 15.7063 13.0522 15.6768 12.9353 15.6586L8.93465 15.6859C8.52583 15.6859 8.24844 15.7727 8.10238 15.9461L8.04393 16.0281C8.01473 16.0738 8 16.1468 8 16.2473C8 16.3476 8.0292 16.4709 8.08766 16.6168C8.67168 17.9036 9.3068 19.1446 9.993 20.3401C10.6792 21.5355 11.2755 22.4985 11.7815 23.2281C12.2877 23.9582 12.8036 24.6473 13.3293 25.2951C13.8549 25.943 14.2029 26.3583 14.3731 26.5407C14.5436 26.7235 14.6775 26.8601 14.7748 26.9513L15.1399 27.2798C15.3735 27.4989 15.7166 27.7612 16.1692 28.0669C16.6219 28.3727 17.1232 28.6738 17.6731 28.9706C18.2232 29.267 18.8631 29.5088 19.5933 29.6958C20.3233 29.883 21.0338 29.9582 21.725 29.9219H23.4042C23.7447 29.8944 24.0027 29.794 24.1781 29.6207L24.2362 29.5521C24.2752 29.4976 24.3118 29.413 24.3456 29.2991C24.3797 29.1851 24.3967 29.0594 24.3967 28.9227C24.3867 28.5304 24.4186 28.1768 24.4914 27.862C24.5642 27.5473 24.6471 27.31 24.7399 27.1502C24.8326 26.9906 24.9373 26.8558 25.0537 26.7466C25.1704 26.6372 25.2536 26.5709 25.3024 26.548C25.3508 26.5251 25.3895 26.5095 25.4187 26.5001C25.6524 26.4272 25.9273 26.4978 26.244 26.7125C26.5604 26.9269 26.8571 27.1917 27.1347 27.5064C27.4122 27.8214 27.7455 28.1748 28.1348 28.5672C28.5243 28.9596 28.8649 29.2514 29.1568 29.4433L29.4487 29.6076C29.6437 29.7172 29.8968 29.8176 30.2083 29.9088C30.5193 30 30.7918 30.0228 31.0258 29.9772L34.7635 29.9226C35.1332 29.9226 35.4208 29.8652 35.6249 29.7513C35.8293 29.6372 35.9508 29.5116 35.99 29.3749C36.029 29.2381 36.0311 29.0828 35.9974 28.9092C35.9628 28.7361 35.9287 28.6151 35.8947 28.5466Z"/>
</symbol><symbol id="yutube" viewBox="0 0 45 45">
<circle cx="22.5" cy="22.5" r="21.5" fill="white" stroke-width="2"/>
<path d="M28.4309 15H15.5691C13.0457 15 11 16.9711 11 19.4025V25.5975C11 28.0289 13.0457 30 15.5691 30H28.4309C30.9543 30 33 28.0289 33 25.5975V19.4025C33 16.9711 30.9543 15 28.4309 15ZM25.3408 22.8014L19.325 25.566C19.1647 25.6396 18.9795 25.527 18.9795 25.3559V19.654C18.9795 19.4805 19.1695 19.368 19.3302 19.4464L25.346 22.3838C25.5249 22.4711 25.5218 22.7183 25.3408 22.8014Z"/>
</symbol></svg>